{
  "accessors": [
    {
      "bufferView": 1,
      "componentType": 5126,
      "count": 65532,
      "max": [
        847.32843017578125,
        102.65849304199219,
        160.98834228515625
      ],
      "min": [
        791.68218994140625,
        48.284709930419922,
        2.4380645751953125
      ],
      "type": "VEC3"
    },
    {
      "bufferView": 1,
      "byteOffset": 786384,
      "componentType": 5126,
      "count": 65532,
      "max": [
        0.99992430210113525,
        0.99992525577545166,
        1
      ],
      "min": [
        -0.9999273419380188,
        -1,
        -0.99998605251312256
      ],
      "type": "VEC3"
    },
    {
      "bufferView": 0,
      "componentType": 5125,
      "count": 354162,
      "max": [
        65531
      ],
      "min": [
        0
      ],
      "type": "SCALAR"
    },
    {
      "bufferView": 1,
      "byteOffset": 1572768,
      "componentType": 5126,
      "count": 65532,
      "max": [
        847.3271484375,
        102.65849304199219,
        153.85768127441406
      ],
      "min": [
        791.678466796875,
        48.284709930419922,
        2.4380645751953125
      ],
      "type": "VEC3"
    },
    {
      "bufferView": 1,
      "byteOffset": 2359152,
      "componentType": 5126,
      "count": 65532,
      "max": [
        0.99992728233337402,
        0.99992674589157104,
        0.9882209300994873
      ],
      "min": [
        -0.9999127984046936,
        -1,
        -1
      ],
      "type": "VEC3"
    },
    {
      "bufferView": 0,
      "byteOffset": 1416648,
      "componentType": 5125,
      "count": 349227,
      "max": [
        65531
      ],
      "min": [
        0
      ],
      "type": "SCALAR"
    },
    {
      "bufferView": 1,
      "byteOffset": 3145536,
      "componentType": 5126,
      "count": 65532,
      "max": [
        847.32806396484375,
        102.65784454345703,
        160.98843383789062
      ],
      "min": [
        791.67877197265625,
        48.284709930419922,
        30.023880004882812
      ],
      "type": "VEC3"
    },
    {
      "bufferView": 1,
      "byteOffset": 3931920,
      "componentType": 5126,
      "count": 65532,
      "max": [
        0.99992680549621582,
        0.999908447265625,
        1
      ],
      "min": [
        -0.99992609024047852,
        -1,
        -0.98803746700286865
      ],
      "type": "VEC3"
    },
    {
      "bufferView": 0,
      "byteOffset": 2813556,
      "componentType": 5125,
      "count": 354825,
      "max": [
        65531
      ],
      "min": [
        0
      ],
      "type": "SCALAR"
    },
    {
      "bufferView": 1,
      "byteOffset": 4718304,
      "componentType": 5126,
      "count": 65532,
      "max": [
        847.3277587890625,
        102.65814208984375,
        160.98858642578125
      ],
      "min": [
        791.67913818359375,
        48.284709930419922,
        2.4382171630859375
      ],
      "type": "VEC3"
    },
    {
      "bufferView": 1,
      "byteOffset": 5504688,
      "componentType": 5126,
      "count": 65532,
      "max": [
        0.99990981817245483,
        0.99992555379867554,
        1
      ],
      "min": [
        -0.99991041421890259,
        -1,
        -1
      ],
      "type": "VEC3"
    },
    {
      "bufferView": 0,
      "byteOffset": 4232856,
      "componentType": 5125,
      "count": 333675,
      "max": [
        65531
      ],
      "min": [
        0
      ],
      "type": "SCALAR"
    },
    {
      "bufferView": 1,
      "byteOffset": 6291072,
      "componentType": 5126,
      "count": 21197,
      "max": [
        847.32843017578125,
        102.65849304199219,
        160.98858642578125
      ],
      "min": [
        791.678466796875,
        48.284709930419922,
        2.4382476806640625
      ],
      "type": "VEC3"
    },
    {
      "bufferView": 1,
      "byteOffset": 6545436,
      "componentType": 5126,
      "count": 21197,
      "max": [
        0.99976682662963867,
        1,
        1
      ],
      "min": [
        -0.99976837635040283,
        -1,
        -1
      ],
      "type": "VEC3"
    },
    {
      "bufferView": 0,
      "byteOffset": 5567556,
      "componentType": 5125,
      "count": 79923,
      "max": [
        21196
      ],
      "min": [
        0
      ],
      "type": "SCALAR"
    }
  ],
  "asset": {
    "extras": {
      "author": "MakerBot Industries (https://sketchfab.com/makerbotindustries)",
      "license": "CC-BY-NC-ND-4.0 (http://creativecommons.org/licenses/by-nc-nd/4.0/)",
      "source": "https://sketchfab.com/models/c6fb872e5b74483ab11d938c67e06a90",
      "title": "Shock Spring"
    },
    "generator": "Sketchfab-3.28.6",
    "version": "2.0"
  },
  "bufferViews": [
    {
      "buffer": 0,
      "byteLength": 5887248,
      "byteOffset": 0,
      "name": "floatBufferViews",
      "target": 34963
    },
    {
      "buffer": 0,
      "byteLength": 6799800,
      "byteOffset": 5887248,
      "byteStride": 12,
      "name": "floatBufferViews",
      "target": 34962
    }
  ],
  "buffers": [
    {
      "byteLength": 12687048,
      "uri": "model.bin"
    }
  ],
  "materials": [
    {
      "doubleSided": true,
      "emissiveFactor": [
        0,
        0,
        0
      ],
      "name": "Scene_-_Root",
      "pbrMetallicRoughness": {
        "baseColorFactor": [
          0.996,
          0.996,
          0.996,
          1
        ],
        "metallicFactor": 0,
        "roughnessFactor": 0.49199999999999999
      }
    }
  ],
  "meshes": [
    {
      "primitives": [
        {
          "attributes": {
            "NORMAL": 1,
            "POSITION": 0
          },
          "indices": 2,
          "material": 0,
          "mode": 4
        }
      ]
    },
    {
      "primitives": [
        {
          "attributes": {
            "NORMAL": 4,
            "POSITION": 3
          },
          "indices": 5,
          "material": 0,
          "mode": 4
        }
      ]
    },
    {
      "primitives": [
        {
          "attributes": {
            "NORMAL": 7,
            "POSITION": 6
          },
          "indices": 8,
          "material": 0,
          "mode": 4
        }
      ]
    },
    {
      "primitives": [
        {
          "attributes": {
            "NORMAL": 10,
            "POSITION": 9
          },
          "indices": 11,
          "material": 0,
          "mode": 4
        }
      ]
    },
    {
      "primitives": [
        {
          "attributes": {
            "NORMAL": 13,
            "POSITION": 12
          },
          "indices": 14,
          "material": 0,
          "mode": 4
        }
      ]
    }
  ],
  "nodes": [
    {
      "children": [
        1
      ],
      "name": "RootNode (gltf orientation matrix)",
      "rotation": [
        -0.70710678118654746,
        -0,
        -0,
        0.70710678118654757
      ]
    },
    {
      "children": [
        2
      ],
      "name": "RootNode (model correction matrix)"
    },
    {
      "children": [
        3,
        4,
        5,
        6,
        7
      ],
      "name": "Shock Spring.stl.cleaner.materialmerger.gles"
    },
    {
      "mesh": 0,
      "name": ""
    },
    {
      "mesh": 1,
      "name": ""
    },
    {
      "mesh": 2,
      "name": ""
    },
    {
      "mesh": 3,
      "name": ""
    },
    {
      "mesh": 4,
      "name": ""
    }
  ],
  "scene": 0,
  "scenes": [
    {
      "name": "OSG_Scene",
      "nodes": [
        0
      ]
    }
  ]
}

